# xmcd
#
# Track frame offsets:
#	150
#	24439
#	37541
#	56386
#	72990
#	87856
#	103527
#	125700
#	140540
#	153648
#	179632
#	197987
#	213190
#
# Disc length: 3071 seconds
#
# Revision: 0
# Processed by: cddbd v1.5.2PL0 Copyright (c) Steve Scherf et al.
# Submitted via: EasyCDDAExtractor 10.0.3.1
#
DISCID=b30bfd0d
DTITLE=Guilherme e Santiago - Ao Vivo Em Goiania
DYEAR=2008
DGENRE=
TTITLE0=Chovendo Estrelas
TTITLE1=O Amor é Assim
TTITLE2=Mentira de Amor
TTITLE3=So de Voce
TTITLE4=Nao Tem Cachaca Que Cura
TTITLE5=A Culpa e Sua
TTITLE6=Anjo Loiro-Dois de Setembo-Meu Goias
TTITLE7=Do Outro Lado da Cidade
TTITLE8=Dai Que Miorou
TTITLE9=Alo Meu Povo-Vai Sobrar Mulher-Misturinha-Enrosca,Enrosca
TTITLE10=Ta Por Fora
TTITLE11=Porque Brigamos
TTITLE12=ABCDE
EXTD=
EXTT0=
EXTT1=
EXTT2=
EXTT3=
EXTT4=
EXTT5=
EXTT6=
EXTT7=
EXTT8=
EXTT9=
EXTT10=
EXTT11=
EXTT12=
PLAYORDER=
